<?xml version="1.0" encoding="UTF-8" standalone="no"?>
<!-- Created with Inkscape (http://www.inkscape.org/) -->

<svg
   xmlns:dc="http://purl.org/dc/elements/1.1/"
   xmlns:cc="http://creativecommons.org/ns#"
   xmlns:rdf="http://www.w3.org/1999/02/22-rdf-syntax-ns#"
   xmlns:svg="http://www.w3.org/2000/svg"
   xmlns="http://www.w3.org/2000/svg"
   xmlns:sodipodi="http://sodipodi.sourceforge.net/DTD/sodipodi-0.dtd"
   xmlns:inkscape="http://www.inkscape.org/namespaces/inkscape"
   version="1.1"
   id="svg3713"
   width="600"
   height="600"
   viewBox="0 0 600 600"
   sodipodi:docname="logo2.svg"
   enable-background="new"
   inkscape:version="0.92.3 (2405546, 2018-03-11)">
  <metadata
     id="metadata3719">
    <rdf:RDF>
      <cc:Work
         rdf:about="">
        <dc:format>image/svg+xml</dc:format>
        <dc:type
           rdf:resource="http://purl.org/dc/dcmitype/StillImage" />
        <dc:title></dc:title>
      </cc:Work>
    </rdf:RDF>
  </metadata>
  <defs
     id="defs3717" />
  <sodipodi:namedview
     pagecolor="#ffffff"
     bordercolor="#666666"
     borderopacity="1"
     objecttolerance="10"
     gridtolerance="10"
     guidetolerance="10"
     inkscape:pageopacity="0"
     inkscape:pageshadow="2"
     inkscape:window-width="1920"
     inkscape:window-height="1028"
     id="namedview3715"
     showgrid="false"
     inkscape:zoom="1.4316667"
     inkscape:cx="307.74768"
     inkscape:cy="214.80432"
     inkscape:window-x="-8"
     inkscape:window-y="-8"
     inkscape:window-maximized="1"
     inkscape:current-layer="layer9" />
  <g
     inkscape:groupmode="layer"
     id="layer1"
     inkscape:label="Layer 1" />
  <g
     inkscape:groupmode="layer"
     id="layer10"
     inkscape:label="sombra y letras" />
  <g
     inkscape:groupmode="layer"
     id="layer2"
     inkscape:label="cuerpo total"
     style="display:inline" />
  <g
     inkscape:groupmode="layer"
     id="layer3"
     inkscape:label="detalles mayores"
     style="display:inline" />
  <g
     inkscape:groupmode="layer"
     id="layer4"
     inkscape:label="corbata y estrella"
     style="display:inline" />
  <g
     inkscape:groupmode="layer"
     id="layer5"
     inkscape:label="ilum estrella"
     style="display:inline" />
  <g
     inkscape:groupmode="layer"
     id="layer6"
     inkscape:label="marcas azul"
     style="display:inline" />
  <g
     inkscape:groupmode="layer"
     id="layer7"
     inkscape:label="marco"
     style="display:inline" />
  <g
     inkscape:groupmode="layer"
     id="layer8"
     inkscape:label="flecha1"
     style="display:inline" />
  <g
     inkscape:groupmode="layer"
     id="layer9"
     inkscape:label="flecha2">
    <g
       id="g4626">
      <g
         id="g4604">
        <path
           style="fill:#b0b0b0;fill-opacity:1;stroke:#b0b0b0;stroke-width:1;stroke-linecap:square;stroke-linejoin:miter;stroke-miterlimit:12.60000038;stroke-dasharray:none;stroke-opacity:1"
           d="m 211.9907,422.759 5.20386,-21.67909 -35.56114,-13.33542 34.30027,19.57535 -1.23605,5.70238 -34.78229,-23.83528 z"
           id="path4682"
           inkscape:connector-curvature="0"
           sodipodi:nodetypes="ccccccc" />
        <a
           style=""
           id="a851">
          <g
             style="fill:#b0b0b0;fill-opacity:1"
             id="g849">
            <g
               id="g4565">
              <g
                 aria-label="A.J.D."
                 transform="matrix(1.2807773,0,0,1.453967,-71.554471,-195.00873)"
                 style="font-style:normal;font-variant:normal;font-weight:normal;font-stretch:normal;font-size:40px;line-height:1.25;font-family:serif;-inkscape-font-specification:serif;letter-spacing:0px;word-spacing:0px;fill:#b0b0b0;fill-opacity:1;stroke:none;stroke-width:0.73280072"
                 id="flowRoot4684">
                <path
                   d="m 266.61328,421.63179 h -10.25391 l -1.79687,4.17968 q -0.66406,1.54297 -0.66406,2.30469 0,0.60547 0.5664,1.07422 0.58594,0.44922 2.5,0.58594 v 0.72265 H 248.625 v -0.72265 q 1.66016,-0.29297 2.14844,-0.76172 0.99609,-0.9375 2.20703,-3.80859 l 9.3164,-21.79688 h 0.6836 l 9.21875,22.03125 q 1.11328,2.65625 2.01172,3.45703 0.91797,0.78125 2.53906,0.87891 v 0.72265 h -10.44922 v -0.72265 q 1.58203,-0.0781 2.12891,-0.52735 0.5664,-0.44921 0.5664,-1.09375 0,-0.85937 -0.78125,-2.71484 z m -0.54687,-1.44532 -4.49219,-10.70312 -4.60938,10.70312 z"
                   style="fill:#b0b0b0;fill-opacity:1;stroke-width:0.73280072"
                   id="path4643" />
                <path
                   d="m 282.21875,426.70991 q 0.91797,0 1.54297,0.64453 0.625,0.625 0.625,1.52344 0,0.89844 -0.64453,1.54297 -0.625,0.625 -1.52344,0.625 -0.89844,0 -1.54297,-0.625 -0.625,-0.64453 -0.625,-1.54297 0,-0.91797 0.625,-1.54297 0.64453,-0.625 1.54297,-0.625 z"
                   style="fill:#b0b0b0;fill-opacity:1;stroke-width:0.73280072"
                   id="path4645" />
                <path
                   d="m 291.20312,404.73726 v -0.72266 h 11.34766 v 0.72266 h -0.95703 q -1.62109,0 -2.36328,0.95703 -0.46875,0.625 -0.46875,3.00781 v 12.94922 q 0,2.98828 -0.66406,4.84375 -0.64454,1.85547 -2.2461,3.24219 -1.60156,1.36718 -3.86719,1.36718 -1.83593,0 -2.89062,-0.89843 -1.05469,-0.91797 -1.05469,-2.08985 0,-0.95703 0.48828,-1.44531 0.64453,-0.60547 1.50391,-0.60547 0.625,0 1.11328,0.41016 0.50781,0.41015 1.26953,2.1875 0.44922,1.05468 1.15235,1.05468 0.52734,0 0.97656,-0.64453 0.46875,-0.64453 0.46875,-2.28515 V 408.7021 q 0,-2.01172 -0.25391,-2.65625 -0.19531,-0.48828 -0.82031,-0.83984 -0.83984,-0.46875 -1.77734,-0.46875 z"
                   style="fill:#b0b0b0;fill-opacity:1;stroke-width:0.73280072"
                   id="path4647" />
                <path
                   d="m 307.76562,426.70991 q 0.91797,0 1.54297,0.64453 0.625,0.625 0.625,1.52344 0,0.89844 -0.64453,1.54297 -0.625,0.625 -1.52344,0.625 -0.89843,0 -1.54296,-0.625 -0.625,-0.64453 -0.625,-1.54297 0,-0.91797 0.625,-1.54297 0.64453,-0.625 1.54296,-0.625 z"
                   style="fill:#b0b0b0;fill-opacity:1;stroke-width:0.73280072"
                   id="path4649" />
                <path
                   d="m 313.44922,430.49897 v -0.72265 h 0.99609 q 1.67969,0 2.38281,-1.07422 0.42969,-0.64453 0.42969,-2.89063 V 408.7021 q 0,-2.48047 -0.54687,-3.10547 -0.76172,-0.85937 -2.26563,-0.85937 h -0.99609 v -0.72266 h 10.78125 q 5.9375,0 9.02344,1.34766 3.10546,1.34765 4.98046,4.49218 1.89454,3.14453 1.89454,7.26563 0,5.52734 -3.35938,9.23828 -3.76953,4.14062 -11.48437,4.14062 z m 7.55859,-1.91406 q 2.48047,0.54688 4.16016,0.54688 4.53125,0 7.51953,-3.1836 2.98828,-3.18359 2.98828,-8.63281 0,-5.48828 -2.98828,-8.65234 -2.98828,-3.16407 -7.67578,-3.16407 -1.75781,0 -4.00391,0.56641 z"
                   style="fill:#b0b0b0;fill-opacity:1;stroke-width:0.73280072"
                   id="path4651" />
                <path
                   d="m 346.67187,426.70991 q 0.91797,0 1.54297,0.64453 0.625,0.625 0.625,1.52344 0,0.89844 -0.64453,1.54297 -0.625,0.625 -1.52344,0.625 -0.89843,0 -1.54296,-0.625 -0.625,-0.64453 -0.625,-1.54297 0,-0.91797 0.625,-1.54297 0.64453,-0.625 1.54296,-0.625 z"
                   style="fill:#b0b0b0;fill-opacity:1;stroke-width:0.73280072"
                   id="path4653" />
              </g>
            </g>
          </g>
        </a>
        <path
           style="display:inline;fill:#000000;fill-opacity:1;stroke:#000000;stroke-width:1px;stroke-linecap:butt;stroke-linejoin:miter;stroke-opacity:1"
           d="m 219.3248,432.18859 13.96973,-6.63562 5.23865,-12.74738 7.33411,2.09546 c 15.95667,-28.96905 17.91603,-61.95395 20.51805,-91.85099 19.03548,-8.59205 35.91204,-25.77429 40.28025,-44.63082 7.5351,-7.78631 5.13358,-11.01835 5.27919,-15.41783 l -26.99221,4.73597 c -3.30183,13.15272 -12.50621,21.52533 -25.11555,28.24632 2.45278,-18.40993 -15.29894,-17.14351 -23.71344,-14.86221 -5.0092,-0.0639 -7.96186,2.01002 -10.19463,4.17017 -2.57116,2.10634 -2.75069,5.2573 -2.56458,8.29873 0.0888,1.45064 0.32245,2.93811 0.91339,4.33716 -0.23246,-1.31533 -0.11382,-2.83293 0.0792,-4.22714 0.3478,-2.51231 0.73666,-5.02488 2.07619,-6.71593 l 5.34094,0.39162 c -2.78507,8.34009 -0.29745,9.90398 0.77082,13.3118 l -0.86466,1.10654 c -1.55201,0.33074 -2.92783,0.3091 -4.32103,0.32221 0.0793,1.43282 2.64061,3.11385 4.1891,4.69359 -22.19565,9.8012 -41.16159,26.56356 -48.19557,46.79861 l 7.40643,7.78564 9.59179,-0.0212 c 4.04582,-9.42439 11.10803,-15.34866 18.27535,-20.33722 2.27285,26.04505 1.5251,52.89559 -6.63562,81.72293 z"
           id="path3725-6"
           inkscape:connector-curvature="0"
           sodipodi:nodetypes="cccccccccccscscccccccccccc" />
        <path
           style="display:inline;fill:#fffffb;fill-opacity:1;stroke:#ffffff;stroke-width:1px;stroke-linecap:butt;stroke-linejoin:miter;stroke-opacity:1"
           d="m 289.87194,272.32247 16.32713,-3.31781 c -3.07043,3.75437 -6.33041,5.99237 -9.86613,6.02444 -6.90669,17.24699 -17.11963,32.20947 -35.53551,39.90105 0.72507,17.22673 -0.66849,33.79139 -3.66705,49.85448 -3.44955,14.81925 -6.61726,29.75123 -13.44587,43.21886 l -4.71478,-0.17462 c 4.68747,-12.57269 6.20272,-29.39187 8.11991,-46.88591 h -2.61933 c -2.85358,15.50881 1.40164,17.64885 -15.71595,59.98253 l -8.1199,4.36555 c 13.46882,-34.88096 14.27964,-70.959 9.6915,-96.91502 -13.40425,5.50984 -24.61794,13.36669 -31.51921,25.844 l -0.87311,-2.18277 c 3.23575,-6.57392 7.767,-12.04666 13.28154,-16.68361 9.14597,-6.68771 8.0365,-5.95681 0.27685,-0.33465 -5.11762,3.72319 -10.08232,8.13453 -14.34419,15.7086 l -7.24679,0.43655 c 4.65763,-14.1831 25.02409,-33.01443 46.64236,-39.8235 4.05484,-0.97652 8.04608,-2.45415 11.56685,-3.89249 4.07454,-1.66728 8.49161,-3.60098 13.12373,-5.70193 12.12448,-6.19059 21.90365,-16.25017 28.63795,-29.42375 z"
           id="path4552"
           inkscape:connector-curvature="0"
           sodipodi:nodetypes="cccccccccccccccccccccc" />
        <path
           style="display:inline;fill:#ffffff;fill-opacity:1;stroke:#ffffff;stroke-width:1px;stroke-linecap:butt;stroke-linejoin:miter;stroke-opacity:1"
           d="m 244.36735,300.09625 c 3.31233,0.16095 6.5558,-1.3961 8.66599,-4.43016 1.66369,-2.14466 1.72846,-4.29794 0.80446,-6.01312 -1.76317,-2.9784 -4.54611,-4.26348 -7.81084,-4.30115 -3.43886,0.38904 -6.88382,1.40521 -8.37591,3.74014 -1.17238,1.32092 -1.91542,3.067 -1.75856,4.76868 0.0679,0.49851 0.17648,0.9645 0.32121,1.39891 1.1569,3.47236 4.62616,4.92645 8.15365,4.8367 z"
           id="path4554"
           inkscape:connector-curvature="0"
           sodipodi:nodetypes="ccccccsc" />
        <path
           style="display:inline;fill:#fc0000;fill-opacity:1;stroke:#ff0000;stroke-width:1px;stroke-linecap:butt;stroke-linejoin:miter;stroke-opacity:1"
           d="m 248.43402,309.33713 c -0.51318,8.02155 1.68032,15.90064 -7.65552,24.38654 0.74398,1.50099 1.52465,2.74519 1.79041,7.59378 2.95752,-1.4258 5.1333,-1.44449 7.28509,-1.41997 4.00287,-9.88331 4.27852,-20.01932 -1.41998,-30.56035 z"
           id="path4557"
           inkscape:connector-curvature="0"
           sodipodi:nodetypes="ccccc" />
        <path
           style="display:inline;fill:#fb0000;fill-opacity:1;stroke:#ff0000;stroke-width:1px;stroke-linecap:butt;stroke-linejoin:miter;stroke-opacity:1"
           d="m 284.63329,229.54016 11.69966,6.54831 11.3504,-7.07217 -4.8894,9.95343 10.56461,8.29453 -12.57276,1.5716 -3.84168,15.10477 -4.36554,-14.75553 -13.62049,-1.5716 9.95344,-6.89755 z"
           id="path4559"
           inkscape:connector-curvature="0" />
        <path
           style="display:inline;fill:#ffffff;fill-opacity:1;stroke:#ffffff;stroke-width:0.80000001;stroke-linecap:butt;stroke-linejoin:round;stroke-miterlimit:4;stroke-dasharray:none;stroke-opacity:1"
           d="m 284.98254,246.12922 5.76251,-3.40512 3.84168,0.69848 z"
           id="path4562"
           inkscape:connector-curvature="0" />
        <path
           style="display:inline;fill:#01aaff;fill-opacity:1;stroke:#00aaff;stroke-width:1px;stroke-linecap:butt;stroke-linejoin:round;stroke-opacity:1"
           d="m 300.34924,280.44237 1.65891,-0.26193 c -13.73425,28.24853 -20.69725,28.28353 -29.16182,34.57509 16.95734,-11.3566 22.53165,-24.7078 27.50291,-34.31316 z"
           id="path4573"
           inkscape:connector-curvature="0"
           sodipodi:nodetypes="cccc" />
        <path
           style="display:inline;fill:#01aaff;fill-opacity:1;stroke:#00aaff;stroke-width:1px;stroke-linecap:butt;stroke-linejoin:miter;stroke-opacity:1"
           d="m 216.57071,421.10505 1.72867,1.97562 c 8.41208,-31.50793 7.111,-46.23858 6.79119,-62.66415 0.0359,22.14676 -3.12683,42.16107 -8.51986,60.68853 z"
           id="path4575"
           inkscape:connector-curvature="0"
           sodipodi:nodetypes="cccc" />
        <path
           style="display:inline;fill:none;fill-opacity:1;stroke:#b0b0b0;stroke-width:50;stroke-linecap:butt;stroke-linejoin:round;stroke-miterlimit:4;stroke-dasharray:none;stroke-opacity:1"
           d="m 191.52368,175.87555 h 178.66757 c 36.4449,0 65.78502,29.34011 65.78502,65.785 v 179.0518 c 0,36.44489 -29.34012,65.78499 -65.78502,65.78499 H 191.52368 c -36.4449,0 -65.78502,-29.3401 -65.78502,-65.78499 v -179.0518 c 0,-36.44489 29.34012,-65.785 65.78502,-65.785 z"
           id="rect4616" />
        <path
           style="display:inline;fill:#000005;fill-opacity:1;stroke:#000000;stroke-width:1px;stroke-linecap:butt;stroke-linejoin:miter;stroke-opacity:1"
           d="m 467.77004,503.5114 -11.79884,37.88645 c -0.40769,1.62094 -1.06575,3.29248 -1.89993,4.56003 -2.1189,2.55945 -5.84743,2.48993 -7.72709,-0.39019 -0.68832,-1.14257 -0.97816,-2.28681 -1.41832,-3.59733 L 400.84561,410.72458 c -0.51068,-1.23528 -0.84669,-2.62126 -1.02908,-3.85777 -0.1833,-2.25602 0.79842,-3.46694 3.38384,-3.84669 1.50132,0.004 2.64147,0.86084 4.20255,1.77848 L 523.377,472.97151 c 1.74529,0.97691 3.61592,2.14985 4.85874,3.54086 2.63106,2.98339 1.79769,5.90386 -0.51645,7.75265 -1.66878,1.32273 -3.1221,1.52901 -5.18243,1.76658 l -39.62161,4.56853 33.31243,38.42867 c 1.92987,1.81845 3.15569,4.24621 3.76465,6.5865 3.32386,13.04137 -13.84807,17.71038 -20.00742,9.00126 z"
           id="path4619"
           inkscape:connector-curvature="0"
           sodipodi:nodetypes="cccccccccccccccccc" />
        <path
           style="fill:#ffffff;fill-opacity:1;stroke:#000000;stroke-width:0;stroke-linecap:butt;stroke-linejoin:miter;stroke-miterlimit:4;stroke-dasharray:none;stroke-opacity:1"
           d="m 469.15388,501.66471 -11.79884,37.88645 c -0.40769,1.62094 -1.06575,3.29248 -1.89993,4.56003 -2.1189,2.55945 -5.84743,2.48993 -7.72709,-0.39019 -0.68832,-1.14257 -0.97816,-2.28681 -1.41832,-3.59733 L 402.22945,408.87789 c -0.51068,-1.23528 -0.84669,-2.62126 -1.02908,-3.85777 -0.1833,-2.25602 0.79842,-3.46694 3.38384,-3.84669 1.50132,0.004 2.64147,0.86084 4.20255,1.77848 l 115.97408,68.17291 c 1.74529,0.97691 3.61592,2.14985 4.85874,3.54086 2.63106,2.98339 1.79769,5.90386 -0.51645,7.75265 -1.66878,1.32273 -3.1221,1.52901 -5.18243,1.76658 l -39.62161,4.56853 33.31243,38.42867 c 1.92987,1.81845 3.15569,4.24621 3.76465,6.5865 3.32386,13.04137 -13.84807,17.71038 -20.00742,9.00126 z"
           id="path4619-5"
           inkscape:connector-curvature="0"
           sodipodi:nodetypes="cccccccccccccccccc" />
      </g>
    </g>
  </g>
</svg>
